<svg width="127" height="32" viewBox="0 0 127 32" fill="none" xmlns="http://www.w3.org/2000/svg">
<path d="M122 0H31V32H122C124.761 32 127 29.7614 127 27V5C127 2.23858 124.761 0 122 0Z" fill="#0F1418"/>
<path d="M31 0H5C2.23858 0 0 2.23858 0 5V27C0 29.7614 2.23858 32 5 32H31V0Z" fill="#676CE7"/>
<path d="M64.9761 11.4971L62.2002 22H59.5782L57.835 15.2617C57.7422 14.9102 57.6861 14.5171 57.6665 14.0825H57.6372C57.5933 14.561 57.5298 14.9541 57.4468 15.2617L55.6597 22H52.9278L50.1665 11.4971H52.752L54.2315 18.4917C54.295 18.7896 54.3413 19.1899 54.3706 19.6929H54.4146C54.4341 19.3169 54.5049 18.9067 54.627 18.4624L56.5313 11.4971H59.0655L60.7867 18.5503C60.8501 18.8091 60.9063 19.1851 60.9551 19.6782H60.9844C61.0039 19.2925 61.0552 18.9019 61.1382 18.5063L62.5884 11.4971H64.9761ZM72.8539 18.9092H67.9613C68.0394 19.998 68.7254 20.5425 70.0194 20.5425C70.8446 20.5425 71.5697 20.3472 72.1947 19.9565V21.6265C71.5013 21.9976 70.6004 22.1831 69.4921 22.1831C68.2811 22.1831 67.3412 21.8486 66.6722 21.1797C66.0033 20.5059 65.6688 19.5684 65.6688 18.3672C65.6688 17.1221 66.0301 16.1357 66.7528 15.4082C67.4754 14.6807 68.3641 14.3169 69.4188 14.3169C70.5126 14.3169 71.3573 14.6416 71.953 15.291C72.5536 15.9404 72.8539 16.8218 72.8539 17.9351V18.9092ZM70.7079 17.4883C70.7079 16.4141 70.2733 15.877 69.4042 15.877C69.0331 15.877 68.7108 16.0308 68.4374 16.3384C68.1688 16.646 68.0052 17.0293 67.9466 17.4883H70.7079ZM76.7546 21.1284H76.7253V22H74.4108V10.8965H76.7253V15.6279H76.7546C77.3259 14.7539 78.1388 14.3169 79.1935 14.3169C80.1603 14.3169 80.905 14.6489 81.4274 15.313C81.9499 15.9771 82.2111 16.8853 82.2111 18.0376C82.2111 19.2876 81.9059 20.291 81.2956 21.0479C80.6852 21.8047 79.8698 22.1831 78.8493 22.1831C77.9264 22.1831 77.2282 21.8315 76.7546 21.1284ZM76.6887 17.9644V18.7334C76.6887 19.2168 76.8278 19.6172 77.1061 19.9346C77.3845 20.252 77.7409 20.4106 78.1755 20.4106C78.7028 20.4106 79.1105 20.208 79.3986 19.8027C79.6916 19.3926 79.8381 18.814 79.8381 18.0669C79.8381 17.4468 79.7038 16.9634 79.4352 16.6167C79.1716 16.2651 78.7931 16.0894 78.3 16.0894C77.8361 16.0894 77.4504 16.2627 77.1428 16.6094C76.84 16.9561 76.6887 17.4077 76.6887 17.9644ZM83.4019 21.8022V19.9272C83.7827 20.1567 84.1611 20.3276 84.5371 20.4399C84.918 20.5522 85.2769 20.6084 85.6138 20.6084C86.0239 20.6084 86.3462 20.5522 86.5806 20.4399C86.8198 20.3276 86.9395 20.1567 86.9395 19.9272C86.9395 19.7808 86.8857 19.6587 86.7783 19.561C86.6709 19.4634 86.5317 19.3779 86.3608 19.3047C86.1948 19.2314 86.0117 19.1655 85.8115 19.1069C85.6113 19.0483 85.4185 18.9824 85.2329 18.9092C84.9351 18.7969 84.6714 18.6772 84.4419 18.5503C84.2173 18.4185 84.0269 18.2671 83.8706 18.0962C83.7192 17.9253 83.6021 17.7275 83.519 17.5029C83.4409 17.2783 83.4019 17.0122 83.4019 16.7046C83.4019 16.2847 83.4922 15.9233 83.6729 15.6206C83.8584 15.3179 84.1025 15.0713 84.4053 14.8809C84.7129 14.6855 85.062 14.5439 85.4526 14.4561C85.8481 14.3633 86.2583 14.3169 86.6831 14.3169C87.0151 14.3169 87.3521 14.3438 87.6938 14.3975C88.0356 14.4463 88.3726 14.5195 88.7046 14.6172V16.4043C88.4116 16.2334 88.0967 16.1064 87.7598 16.0234C87.4277 15.9355 87.1006 15.8916 86.7783 15.8916C86.627 15.8916 86.4829 15.9062 86.3462 15.9355C86.2144 15.96 86.0972 15.999 85.9946 16.0527C85.8921 16.1016 85.8115 16.1675 85.7529 16.2505C85.6943 16.3286 85.665 16.4189 85.665 16.5215C85.665 16.6582 85.709 16.7754 85.7969 16.873C85.8848 16.9707 85.9995 17.0562 86.1411 17.1294C86.2827 17.1978 86.439 17.2612 86.6099 17.3198C86.7856 17.3735 86.959 17.4297 87.1299 17.4883C87.4375 17.5957 87.7158 17.7129 87.9648 17.8398C88.2139 17.9668 88.4263 18.1157 88.6021 18.2866C88.7827 18.4575 88.9194 18.6577 89.0122 18.8872C89.1099 19.1167 89.1587 19.3901 89.1587 19.7075C89.1587 20.1519 89.061 20.5327 88.8657 20.8501C88.6753 21.1626 88.4189 21.4189 88.0967 21.6191C87.7793 21.8145 87.4106 21.9561 86.9907 22.0439C86.5757 22.1367 86.1436 22.1831 85.6943 22.1831C84.8691 22.1831 84.105 22.0562 83.4019 21.8022ZM91.8509 13.3135C91.4603 13.3135 91.1404 13.1987 90.8914 12.9692C90.6424 12.7349 90.5179 12.4492 90.5179 12.1123C90.5179 11.7656 90.6424 11.4824 90.8914 11.2627C91.1404 11.043 91.4603 10.9331 91.8509 10.9331C92.2464 10.9331 92.5662 11.043 92.8104 11.2627C93.0594 11.4824 93.1839 11.7656 93.1839 12.1123C93.1839 12.4639 93.0594 12.752 92.8104 12.9766C92.5662 13.2012 92.2464 13.3135 91.8509 13.3135ZM92.9935 22H90.679V14.5H92.9935V22ZM99.6554 21.9121C99.3136 22.0928 98.7985 22.1831 98.11 22.1831C96.4791 22.1831 95.6637 21.3359 95.6637 19.6416V16.2065H94.4479V14.5H95.6637V12.8813L97.9708 12.2222V14.5H99.6554V16.2065H97.9708V19.2388C97.9708 20.02 98.2809 20.4106 98.901 20.4106C99.1452 20.4106 99.3966 20.3398 99.6554 20.1982V21.9121ZM107.826 18.9092H102.934C103.012 19.998 103.698 20.5425 104.992 20.5425C105.817 20.5425 106.542 20.3472 107.167 19.9565V21.6265C106.474 21.9976 105.573 22.1831 104.464 22.1831C103.253 22.1831 102.313 21.8486 101.644 21.1797C100.976 20.5059 100.641 19.5684 100.641 18.3672C100.641 17.1221 101.002 16.1357 101.725 15.4082C102.448 14.6807 103.336 14.3169 104.391 14.3169C105.485 14.3169 106.33 14.6416 106.925 15.291C107.526 15.9404 107.826 16.8218 107.826 17.9351V18.9092ZM105.68 17.4883C105.68 16.4141 105.246 15.877 104.376 15.877C104.005 15.877 103.683 16.0308 103.41 16.3384C103.141 16.646 102.978 17.0293 102.919 17.4883H105.68Z" fill="white"/>
<path d="M122 0H5C2.23858 0 0 2.23858 0 5V27C0 29.7614 2.23857 32 5 32H122C124.761 32 127 29.7614 127 27V5C127 2.23858 124.761 0 122 0Z" fill="url(#paint0_linear_119_32)"/>
<path d="M15.6362 21.1025H13.2812L11.8657 18.7603C11.7599 18.5825 11.6584 18.4238 11.561 18.2842C11.4637 18.1445 11.3643 18.026 11.2627 17.9287C11.1654 17.8271 11.0617 17.751 10.9517 17.7002C10.8459 17.6452 10.7295 17.6177 10.6025 17.6177H10.0503V21.1025H8V12H11.25C13.459 12 14.5635 12.8252 14.5635 14.4756C14.5635 14.793 14.5148 15.0871 14.4175 15.3579C14.3201 15.6245 14.1826 15.8657 14.0049 16.0815C13.8271 16.2974 13.6113 16.4836 13.3574 16.6401C13.1077 16.7967 12.8285 16.9194 12.5195 17.0083V17.0337C12.6549 17.076 12.7861 17.1458 12.9131 17.2432C13.04 17.3363 13.1628 17.4463 13.2812 17.5732C13.3997 17.7002 13.5119 17.8377 13.6177 17.9858C13.7277 18.1297 13.8271 18.2715 13.916 18.4111L15.6362 21.1025ZM10.0503 13.5361V16.0688H10.939C11.3791 16.0688 11.7324 15.9419 11.999 15.688C12.2699 15.4299 12.4053 15.1104 12.4053 14.7295C12.4053 13.9339 11.9292 13.5361 10.9771 13.5361H10.0503Z" fill="white"/>
<path d="M24.5266 21.1025H22.47V17.3955H18.6995V21.1025H16.6492V12H18.6995V15.6309H22.47V12H24.5266V21.1025Z" fill="white"/>
<defs>
<linearGradient id="paint0_linear_119_32" x1="0" y1="0" x2="0" y2="32" gradientUnits="userSpaceOnUse">
<stop stop-color="#BBBBBB" stop-opacity="0.1"/>
<stop offset="1" stop-opacity="0.1"/>
</linearGradient>
</defs>
</svg>
