<svg version="1.0" xmlns="http://www.w3.org/2000/svg"
 width="200.000000pt" height="200.000000pt" viewBox="0 0 200.000000 200.000000"
 preserveAspectRatio="xMidYMid meet">
<metadata>
Created by potrace 1.16, written by Peter Selinger 2001-2019
</metadata>
<g transform="translate(0.000000,200.000000) scale(0.100000,-0.100000)"
fill="currentColor" stroke="none">
<path d="M0 1000 l0 -1000 1000 0 1000 0 0 1000 0 1000 -1000 0 -1000 0 0
-1000z m1165 740 c345 -77 595 -388 594 -740 0 -93 -19 -214 -35 -230 -5 -4
-234 -13 -509 -19 -532 -12 -671 -19 -658 -31 4 -5 219 -13 478 -19 259 -7
512 -14 563 -17 l92 -6 -32 -61 c-19 -37 -65 -95 -113 -144 l-80 -81 -105 -6
c-58 -3 -260 -8 -450 -11 l-345 -6 -60 55 c-33 29 -58 56 -55 59 3 2 218 9
478 16 440 10 524 16 493 35 -11 7 -303 17 -831 30 -245 6 -219 -4 -275 111
-32 66 -62 162 -54 169 2 2 188 9 414 16 392 12 461 19 421 42 -14 8 -559 27
-780 28 l-79 0 6 98 c6 114 25 190 72 290 153 325 503 498 850 422z"/>
</g>
</svg>
