<svg xmlns="http://www.w3.org/2000/svg" viewBox="0 0 80 80" fill="none">
  <path d="M58.9256 40.3286C59.4322 40.103 60.0019 40.4719 59.973 41.0258C59.5936 48.2981 55.2413 55.1014 48.1327 58.2663C41.0241 61.4313 33.056 60.1134 27.3978 55.5292C26.9669 55.1801 27.0739 54.5099 27.5805 54.2843L32.3919 52.1421C32.6216 52.0398 32.8862 52.0576 33.1051 52.1813C36.8344 54.2883 41.4794 54.6623 45.693 52.7863C49.9065 50.9103 52.7366 47.2082 53.6662 43.0269C53.7208 42.7814 53.8846 42.573 54.1144 42.4707L58.9256 40.3286Z" fill="currentColor"/>
  <path fill-rule="evenodd" clip-rule="evenodd" d="M58.2665 31.8675L58.7669 32.9913C58.9397 33.3794 58.7651 33.8342 58.377 34.007L23.2498 49.6466C22.8617 49.8194 22.407 49.6449 22.2342 49.2568L21.7543 48.179L21.7336 48.1327C17.2421 38.0444 21.7791 26.2252 31.8673 21.7336C41.9555 17.242 53.7749 21.7792 58.2665 31.8675ZM27.0589 41.3842C26.5888 41.5935 26.0498 41.2904 26.0213 40.7766C25.7093 35.1431 28.8465 29.6447 34.3072 27.2134C39.7679 24.7821 45.9531 26.13 49.9309 30.1314C50.2937 30.4963 50.1582 31.0997 49.6881 31.309L27.0589 41.3842Z" fill="currentColor"/>
</svg>
