<svg version="1.0" xmlns="http://www.w3.org/2000/svg"
 width="599.000000pt" height="600.000000pt" viewBox="0 0 599.000000 600.000000"
 preserveAspectRatio="xMidYMid meet">
<metadata>
Created by potrace 1.16, written by Peter Selinger 2001-2019
</metadata>
<g transform="translate(0.000000,600.000000) scale(0.100000,-0.100000)"
fill="currentColor" stroke="none">
<path d="M0 3000 l0 -3000 2995 0 2995 0 0 3000 0 3000 -2995 0 -2995 0 0
-3000z m2605 1957 c112 -22 175 -42 266 -87 183 -89 320 -205 422 -357 157
-232 199 -413 196 -831 -1 -96 3 -178 8 -183 5 -5 114 -11 243 -13 237 -4 265
-7 420 -52 212 -61 434 -220 567 -405 79 -110 157 -297 184 -439 16 -82 16
-295 0 -380 -18 -100 -78 -255 -139 -360 -43 -75 -79 -119 -171 -210 -129
-128 -227 -193 -366 -244 -180 -65 -59 -60 -1542 -63 l-1353 -4 0 1333 c0 834
4 1359 10 1402 21 141 101 340 182 451 100 137 117 154 222 233 157 116 381
211 501 212 17 0 37 5 45 10 21 14 208 6 305 -13z"/>
</g>
</svg>
