<svg version="1.0" xmlns="http://www.w3.org/2000/svg"
 width="1024.000000pt" height="1024.000000pt" viewBox="0 0 1024.000000 1024.000000"
 preserveAspectRatio="xMidYMid meet">
<metadata>
Created by potrace 1.16, written by Peter Selinger 2001-2019
</metadata>
<g transform="translate(0.000000,1024.000000) scale(0.100000,-0.100000)"
fill="currentColor" stroke="none">
<path d="M0 5120 l0 -5120 5120 0 5120 0 0 5120 0 5120 -5120 0 -5120 0 0
-5120z m5075 3825 c172 -45 305 -179 350 -352 13 -49 15 -211 15 -1125 l0
-1068 1388 0 c1214 0 1395 -2 1447 -15 172 -45 305 -179 350 -352 22 -86 22
-1740 0 -1826 -45 -173 -178 -307 -350 -352 -52 -13 -233 -15 -1447 -15
l-1388 0 0 -1068 c0 -927 -2 -1076 -15 -1127 -45 -172 -179 -305 -352 -350
-86 -22 -2380 -22 -2466 0 -173 45 -307 178 -352 350 -23 89 -23 1741 0 1830
45 172 179 305 352 350 49 13 247 15 1445 15 l1388 0 0 1280 0 1280 -1388 0
c-1214 0 -1395 2 -1447 15 -172 45 -305 179 -350 352 -22 86 -22 1740 0 1826
45 171 177 306 346 351 83 23 2388 23 2474 1z"/>
</g>
</svg>
