<svg
      viewBox="0 0 192.756 192.756"
      xmlns="http://www.w3.org/2000/svg"
    >
      <title>Shure</title>
      <path
        fill="currentColor"
        fill-rule="evenodd"
        clip-rule="evenodd"
        d="M32.609 93.215l-13.824-5.652h18.596l1.049-7.724H13.86c-4.493 0-8.601 4-8.451 8.507.11 3.305 1.607 5.651 4.701 6.94l13.432 5.597H3.898l-1.063 7.779 24.065.056c5.034.012 9.335-2.72 10.187-7.892.657-3.992-.88-6.139-4.478-7.611zM38.206 108.718h13.879l1.238-9.962h4.362l-1.238 9.962h13.88l3.589-28.879H60.037l-1.246 10.018h-4.362l1.245-10.018H41.795l-3.589 28.879zM108.133 95.174c-.357 3.094-1.842 5.617-3.83 8.115-1.514 1.901-3.609 3.438-5.766 4.533-2.524 1.283-5.028 1.786-7.834 2.015-4.081.333-7.507-.396-10.858-2.966-1.789-1.372-3.259-3.34-3.974-5.485-.592-1.776-.396-3.471-.174-5.261l2.021-16.286h14.215l-2.525 19.98h3.669l2.525-19.98h14.3l-1.769 15.335zM122.324 108.718h-12.188l2.232-17.797h19.861l.502-3.414h-19.934l.961-7.668h24.668c9.596 0 9.787 13.744-1.188 16.106l10.176 5.496 2.643-21.602h30.691l-.725 6.604h-16.496l-.486 3.974h16.545l-.836 7.779h-16.66l-.48 3.917h16.633l-.725 6.604h-30.93l-.496 4.199-22.576-13.711-1.192 9.513z"
      />
    </svg>
